<svg id="Filled_Expand" height="512" viewBox="0 0 64 64" width="512" xmlns="http://www.w3.org/2000/svg" data-name="Filled Expand"><path d="m46 42a13.99 13.99 0 0 0 -8.14-12.7021 11 11 0 1 0 -11.72 0 13.9909 13.9909 0 0 0 1.1035 25.87 7.5792 7.5792 0 0 1 4.7037 4.6744l.0528.1577.0526-.1579a7.5792 7.5792 0 0 1 4.7037-4.6744 14.0009 14.0009 0 0 0 9.2437-13.1677z" fill="#ffd342"/><path d="m37.86 29.2979h-3a13.9909 13.9909 0 0 1 -1.1035 25.87 7.948 7.948 0 0 0 -3.2565 2.1962 7.1426 7.1426 0 0 1 1.4474 2.4779l.0526.158.0526-.158a7.5791 7.5791 0 0 1 4.7037-4.6743 13.9909 13.9909 0 0 0 1.1035-25.87z" fill="#fac63f"/><path d="m26.14 29.2979a10.9892 10.9892 0 0 1 1.7137-19.4864 10.7706 10.7706 0 0 1 5.626-.7 10.9874 10.9874 0 0 0 -4.34 20.1869 13.9909 13.9909 0 0 0 1.1035 25.87q.3756.1357.7329.3057a2.8981 2.8981 0 0 1 1.2854 3.8207q-.1157.2676-.2094.5479l-.0521.1573-.0525-.1575a7.5761 7.5761 0 0 0 -4.7031-4.6745 13.991 13.991 0 0 1 -1.1042-25.87z" fill="#ffdf64"/><path d="m43.808 34.5h-23.616a13.9077 13.9077 0 0 0 -1.7331 4h27.0822a13.9077 13.9077 0 0 0 -1.7331-4z" fill="#444"/><path d="m43.808 49.5h-23.616a13.9077 13.9077 0 0 1 -1.7331-4h27.0822a13.9077 13.9077 0 0 1 -1.7331 4z" fill="#444"/><path d="m32 24.3594 9.3121 16.8254a7.3962 7.3962 0 0 0 12.1371 1.1726 7.3962 7.3962 0 0 0 -3.2625-11.7491z" fill="#e3e3e3"/><path d="m32 24.3594-18.1868 6.2489a7.3962 7.3962 0 0 0 -3.2624 11.7491 7.3962 7.3962 0 0 0 12.1371-1.1727z" fill="#e3e3e3"/><path d="m53.4493 39.3574a7.3963 7.3963 0 0 1 -12.1371-1.1726l-7.2622-13.121-2.05-.7044 9.3121 16.8254a7.3963 7.3963 0 0 0 12.1371 1.1726 7.3215 7.3215 0 0 0 1.5724-6.2174 7.3429 7.3429 0 0 1 -1.5723 3.2174z" fill="#ededed"/><path d="m22.6879 38.1848a7.4005 7.4005 0 0 1 -13.7095-2.0448 7.3215 7.3215 0 0 0 1.5724 6.2171 7.3963 7.3963 0 0 0 12.1371-1.1726l9.3121-16.8251-2.05.7044z" fill="#ededed"/><path d="m55.8735 35.3564a8.3935 8.3935 0 0 0 -5.3618-5.6938l-8.585-2.95a11.8767 11.8767 0 0 0 1.9991-8.0614 12.036 12.036 0 0 0 -6.8241-9.51 4.9639 4.9639 0 0 1 4.8983-4.1412 1 1 0 0 0 0-2 6.9658 6.9658 0 0 0 -6.81 5.4326 11.6985 11.6985 0 0 0 -1.8261-.3574 12.0923 12.0923 0 0 0 -4.5489.3756 6.9633 6.9633 0 0 0 -6.815-5.4508 1 1 0 0 0 0 2 4.9461 4.9461 0 0 1 4.8825 4.1629 11.917 11.917 0 0 0 -4.7917 17.5439l-8.6025 2.9558a8.3963 8.3963 0 0 0 2.7265 16.3374c.2686 0 .5391-.0127.8091-.0391.1681-.0162.3308-.0527.4964-.0788a15.0642 15.0642 0 0 0 9.384 10.2268 6.5723 6.5723 0 0 1 4.0942 4.05l.0528.1582a1 1 0 0 0 1.8974 0l.0528-.1582a6.5708 6.5708 0 0 1 4.0947-4.05 15.0646 15.0646 0 0 0 9.3838-10.2273c.1656.0261.3283.0626.4964.0788q.4057.04.8091.0391a8.3966 8.3966 0 0 0 8.0883-10.6431zm-33.8735-15.3564a10.0007 10.0007 0 0 1 19.9375-1.1309 9.8949 9.8949 0 0 1 -1.9918 7.1631l-7.621-2.6186a.99.99 0 0 0 -.6449.0053l-.0045-.0053-7.6112 2.6151a9.9287 9.9287 0 0 1 -2.0641-6.0287zm-2.1667 26.5h24.3334a12.9457 12.9457 0 0 1 -.9512 2h-22.431a12.9549 12.9549 0 0 1 -.9512-2zm1.155-2a8.3854 8.3854 0 0 0 2.5747-2.8311l1.2-2.1689h14.4736l1.2 2.1689a8.3854 8.3854 0 0 0 2.5751 2.8311zm4.882-7 1.1069-2h10.0456l1.1069 2zm2.2139-4 3.9158-7.0753 3.9158 7.0753zm-11.2527 10.47a6.3961 6.3961 0 0 1 -2.6933-12.4155l15.728-5.4045-8.0532 14.55a6.3106 6.3106 0 0 1 -4.9815 3.27zm19.5855 10.2575a8.7754 8.7754 0 0 0 -4.417 3.44 8.7762 8.7762 0 0 0 -4.4165-3.44 12.9783 12.9783 0 0 1 -5.4-3.7275h19.633a12.9774 12.9774 0 0 1 -5.3995 3.7275zm16.2661-12.5127a6.3964 6.3964 0 0 1 -10.4961-1.0148l-8.0532-14.55 15.7285 5.4043a6.3964 6.3964 0 0 1 2.8208 10.1606z"/></svg>